<svg xmlns="http://www.w3.org/2000/svg" version="1.1" xmlns:xlink="http://www.w3.org/1999/xlink" xmlns:svgjs="http://svgjs.dev/svgjs" width="100%" height="100%" viewBox="0 0 1000 600"><rect width="1000" height="600" x="0" y="0" fill="#000000"/><g><rect width="333.3333333333333" height="333.3333333333333" rx="13.333333333333334" ry="13.333333333333334" y="218.44888990854471" fill="#ffffff" transform="matrix(0.6370183559576458,0,0,0.6370183559576459,0,54.67431633273915)" x="196.2266387939453"/><path d="M384.32816102470247 391.65897393856767Q398.70609559741945 393.9770491043731 406.305861014427 401.0779882198782Q413.90562643143454 408.1495846117656 413.90562643143454 417.45122799860485L413.90562643143454 417.45122799860485Q413.90562643143454 427.7798667120669 404.3105558084173 437.7270500184976Q394.6861424617823 447.6448906013105 377.90210455240657 453.89489073189975Q361.08872391941304 460.1155481388711 341.0183009648449 460.1155481388711L341.0183009648449 460.1155481388711Q334.88567172872683 460.1155481388711 326.9631363519236 455.244656018318Q319.0406009751204 450.4031066213827 313.46548348774036 443.94770742546893Q307.8610232767425 437.521650953173 307.8610232767425 433.061556963269L307.8610232767425 433.061556963269Q307.8610232767425 429.07094655124956 316.92792487463953 386.58268275269006L316.92792487463953 386.58268275269006Q323.70609403034894 354.8925412454772 325.8187701308298 342.8620245621835L325.8187701308298 342.8620245621835L318.4244037791468 343.91836261242383Q311.4408355581129 336.5239962607409 311.4408355581129 327.2223528739015L311.4408355581129 327.2223528739015Q311.4408355581129 320.4735264418099 315.2553896284255 314.3408972056918L315.2553896284255 314.3408972056918Q333.62393461316185 310.11554500473017 346.29999121604703 310.11554500473017L346.29999121604703 310.11554500473017Q365.5194751856993 310.11554500473017 382.0100858588971 316.24817424084813Q398.50069653209493 322.3808034769662 408.21313804958334 332.50404312510364Q417.92557956707174 342.65662549685885 417.92557956707174 354.2763440495037L417.92557956707174 354.2763440495037Q417.92557956707174 365.8960626021484 409.1521052053526 376.13667314475697Q400.37863084363346 386.37728368736555 384.32816102470247 391.65897393856767L384.32816102470247 391.65897393856767ZM349.90914622103514 381.53573429043024Q368.072292140447 378.9829173356826 377.6673627634642 372.32211907444434Q387.29177611009925 365.6906635368239 387.29177611009925 356.79981828063353L387.29177611009925 356.79981828063353Q387.29177611009925 350.66718904451545 380.630977848861 346.35380867270044Q373.97017958762274 342.0110855772675 363.20140001989387 342.0110855772675L363.20140001989387 342.0110855772675Q358.7706487536077 342.0110855772675 356.24717452247774 342.45122643153434L356.24717452247774 342.45122643153434Q354.75069561797045 351.9582688836982 354.1344984219969 355.53808116506855L354.1344984219969 355.53808116506855Q352.0218223215161 370.53221293375907 349.90914622103514 381.53573429043024L349.90914622103514 381.53573429043024ZM339.1110239296886 434.5580358677763Q358.3598506229586 433.2962987522113 367.9549212459758 427.36906858141776Q377.57933459261085 421.4418384106243 377.57933459261085 412.7857349433764L377.57933459261085 412.7857349433764Q377.57933459261085 407.94418554644096 373.8821514167694 404.54042960677737Q370.1849682409279 401.16601639073156 362.5852028239203 400.3150774058157L362.5852028239203 400.3150774058157Q356.01243273353543 399.9042792751667 348.41266731652786 401.16601639073156L348.41266731652786 401.16601639073156L347.15093020096293 405.83150944596014Q341.66384088443624 424.4054534960211 339.1110239296886 434.5580358677763L339.1110239296886 434.5580358677763Z " fill="#000000" transform="matrix(0.6370183559576458,0,0,0.6370183559576459,0,54.67431633273915)"/><path d="M688.8257048498617 392.137692069076Q703.1030942542066 394.4395568914091 710.6497143679317 401.49083900539165Q718.1963344816568 408.5129835899776 718.1963344816568 417.7495804087067L718.1963344816568 417.7495804087067Q718.1963344816568 428.0059907563177 708.6683623689613 437.88361322177263Q699.1112527268693 447.7320981578308 682.4445859120015 453.93839191931136Q665.7487815677371 460.11554815139516 645.8187114604476 460.11554815139516L645.8187114604476 460.11554815139516Q639.7289678165537 460.11554815139516 631.8618348794657 455.27871827155593Q623.9947019423778 450.4710259211133 618.4585713570195 444.06076945385644Q612.8933032422647 437.6796505159962 612.8933032422647 433.25074604770964L612.8933032422647 433.25074604770964Q612.8933032422647 429.28804204976905 621.8967998258208 387.09689948346033L621.8967998258208 387.09689948346033Q628.6275691164406 355.62836773510855 630.7254712329974 343.68198068249353L630.7254712329974 343.68198068249353L623.3828138250486 344.7309317407719Q616.4480818286527 337.3882743328232 616.4480818286527 328.151677514094L616.4480818286527 328.151677514094Q616.4480818286527 321.4500457528709 620.2359606502134 315.36030210897695L620.2359606502134 315.36030210897695Q638.4760540524989 311.1644978758634 651.0634667518395 311.1644978758634L651.0634667518395 311.1644978758634Q670.148548506627 311.1644978758634 686.5238400275286 317.25424151975733Q702.8991315484302 323.3439851636514 712.5436537787122 333.3964328054859Q722.188176008994 343.4780179767172 722.188176008994 355.0164796177795L722.188176008994 355.0164796177795Q722.188176008994 366.55494125884184 713.476054719404 376.72393901826285Q704.763933429814 386.892936777684 688.8257048498617 392.137692069076L688.8257048498617 392.137692069076ZM654.6473828676241 382.0852444272414Q672.6835135641331 379.5502793697352 682.2114856768285 372.9360601967021Q691.7685953189206 366.3509785530655 691.7685953189206 357.52230714588904L691.7685953189206 357.52230714588904Q691.7685953189206 351.432563501995 685.1543761458873 347.14934668069156Q678.5401569728542 342.8369923299915 667.8466836842938 342.8369923299915L667.8466836842938 342.8369923299915Q663.446916745404 342.8369923299915 660.9410892172945 343.27405527094083L660.9410892172945 343.27405527094083Q659.4550752180667 352.7146147954463 658.8431871007376 356.2693933818342L658.8431871007376 356.2693933818342Q656.7452849841809 371.1586709035081 654.6473828676241 382.0852444272414L654.6473828676241 382.0852444272414ZM643.9247720496671 434.73676004693743Q663.0389913338513 433.4838462828826 672.5669634465467 427.598065344765Q682.1240730886386 421.7122844066473 682.1240730886386 413.11671323464384L682.1240730886386 413.11671323464384Q682.1240730886386 408.30902088420123 678.4527443846644 404.92906747419306Q674.7814156806899 401.5782515935815 667.2347955669647 400.7332632410795L667.2347955669647 400.7332632410795Q660.7079889821215 400.3253378295268 653.1613688683964 401.5782515935815L653.1613688683964 401.5782515935815L651.9084551043416 406.2111187676444Q646.4597371071733 424.65517487570617 643.9247720496671 434.73676004693743L643.9247720496671 434.73676004693743ZM829.5891093649428 312.21344893414175Q833.58095089228 314.5153137564749 835.5914404206469 318.6237054013986Q837.5727924196173 322.7029595169257 837.5727924196173 327.53978939676495L837.5727924196173 327.53978939676495Q837.5727924196173 331.7355936298785 835.8828157146132 335.93139786299207Q834.2219765390057 340.12720209610563 831.4830487757232 342.8369923299915L831.4830487757232 342.8369923299915Q804.4142839662615 343.27405527094083 786.3781532697523 344.93489444654824L786.3781532697523 344.93489444654824Q782.8233746833645 357.7262698516654 779.6765215085293 373.4605357258413L779.6765215085293 373.4605357258413Q800.6555426740971 371.79969655023376 815.1368947842183 368.4488806696222L815.1368947842183 368.4488806696222Q819.3326990173318 370.95470819773175 821.5180137220785 375.0339623132588Q823.7324659562217 379.1423539581825 823.7324659562217 383.95004630862513L823.7324659562217 383.95004630862513Q823.7324659562217 388.37895077691167 821.9550766630279 392.2542421866625Q820.1485498404372 396.12953359641324 817.001696665602 398.4313984187463L817.001696665602 398.4313984187463Q813.0389926676615 398.86846135969563 809.2511138461007 399.072424065472Q805.4632350245398 399.2763867712483 801.9084564381519 399.4803494770247L801.9084564381519 399.4803494770247L774.83969162869 401.37428888780516L771.0809503365257 420.25540793681625L768.983048219969 430.3369931080474Q781.7744236250861 429.0549418145961 792.1473840902835 426.8696271098495Q802.5494820848776 424.65517487570617 814.0879437259399 420.66333334836895L814.0879437259399 420.66333334836895Q819.944587134661 423.40226111165146 823.2079904270826 428.32650357968055Q826.4422561901076 433.25074604770964 826.4422561901076 439.13652698582735L826.4422561901076 439.13652698582735Q826.4422561901076 447.52813545205447 819.944587134661 454.0258045075012L819.944587134661 454.0258045075012Q806.9492490237675 456.56076956500726 790.7779202086423 457.8136833290621Q774.6357289229137 459.0665970931168 760.7954024595182 459.0665970931168L760.7954024595182 459.0665970931168Q757.0075236379573 459.0665970931168 750.9177799940633 455.27871827155593Q744.857173879566 451.5199769793917 740.1368941173131 446.4791843937761Q735.4166143550603 441.4383918081604 735.4166143550603 437.88361322177263L735.4166143550603 437.88361322177263Q735.4166143550603 434.73676004693743 740.224306705503 413.55377617559316L740.224306705503 413.55377617559316Q743.8082228212876 398.0234730071936 747.159038701899 381.24025607473936L747.159038701899 381.24025607473936Q749.4609035242322 369.70179443367704 749.4609035242322 369.70179443367704L749.4609035242322 369.70179443367704Q752.8117194048438 353.32650291277537 753.8606704631221 345.9838455048266L753.8606704631221 345.9838455048266L745.0611365853423 346.6248711515524Q741.0692950580051 344.52696903499555 738.6508801180854 340.41857739007185Q736.2324651781659 336.33932327454477 736.2324651781659 331.50249339470554L736.2324651781659 331.50249339470554Q736.2324651781659 323.1108849284784 742.7592717630091 316.61321587303166L742.7592717630091 316.61321587303166Q771.4888757480785 316.20529046147897 792.7884097370091 315.36030210897695Q814.0879437259399 314.5153137564749 829.5891093649428 312.21344893414175L829.5891093649428 312.21344893414175ZM869.6823498146947 459.0665970931168Q864.8455199348555 459.0665970931168 858.2313007618222 455.59923109491876Q851.617081588789 452.13186509672073 846.6928391207599 447.3241727462781Q841.7685966527308 442.4873428664389 841.7685966527308 439.3404896916037L841.7685966527308 439.3404896916037Q841.5646339469545 435.98967381099214 843.7499486517012 425.17965040484535Q845.9644008858444 414.36962699869855 846.60542653257 411.22277382386335L846.60542653257 411.22277382386335Q847.4212773556754 407.0269695907498 849.7522797074053 395.8090207730503Q852.0541445297384 384.5910719553509 853.5110209995695 374.94654972506896L853.5110209995695 374.94654972506896L855.2009977045735 365.06892725961416Q859.1928392319109 341.5840785659367 862.6310677007122 326.8987637500393Q866.0984336989103 312.21344893414175 869.6823498146947 312.21344893414175L869.6823498146947 312.21344893414175Q873.2371284010827 312.21344893414175 879.4142846331665 315.15633940320055Q885.6205783946469 318.09922987225934 891.0692963918153 322.5864093993392Q896.5180143889837 327.1027264558156 898.4119537997641 331.09456798315284L898.4119537997641 331.09456798315284Q901.7627696803756 338.64118809687795 907.2114876775439 363.40808808400664L907.2114876775439 363.40808808400664Q910.9993664991048 380.5992304280137 912.8933059098853 387.09689948346033L912.8933059098853 387.09689948346033Q921.8968024934414 373.4605357258413 935.9702291920099 345.37195738749756L935.9702291920099 345.37195738749756Q944.9737257755661 327.53978939676495 949.6940055378188 319.87661916545335Q954.4142853000716 312.21344893414175 958.2021641216326 312.21344893414175L958.2021641216326 312.21344893414175Q962.1940056489697 312.21344893414175 969.0121875277792 315.76822752052965Q975.8303694065888 319.35214363631417 980.9585745803944 324.1598359867568Q986.1159172835963 328.996665866596 986.1159172835963 332.5514444529839L986.1159172835963 332.5514444529839Q986.1159172835963 335.49433492204275 983.5809522260903 349.04328609147194Q981.0751246979809 362.5630997315046 980.4340990512552 365.91391561211617L980.4340990512552 365.91391561211617L974.9853810540868 395.48850794968746Q972.88747893753 407.8719579432519 970.5856141151968 428.0059907563177L970.5856141151968 428.0059907563177Q968.4877119986401 445.2262706297213 966.9142854112225 452.13186509672073Q965.3408588238049 459.0665970931168 961.9900429431933 459.0665970931168L961.9900429431933 459.0665970931168Q957.1532130633541 459.0665970931168 950.5389938903209 455.59923109491876Q943.9247747172877 452.13186509672073 939.0005322492585 447.3241727462781Q934.0762897812294 442.4873428664389 934.0762897812294 439.3404896916037L934.0762897812294 439.3404896916037Q933.8723270754531 436.6306994577178 935.6497163686471 427.7146154623515Q937.427105661841 418.7985314669851 939.728970484174 407.4640325316992L939.728970484174 407.4640325316992Q941.6229098949545 398.4313984187463 941.826872600731 397.1784846546916L941.826872600731 397.1784846546916L949.4026302438526 373.8975986667906L946.4597397747938 372.84864760851224L944.361837658237 377.0444518416258Q936.1741918977863 393.82766877408005 931.2499494297571 403.15167818099906Q926.325706961728 412.5048251173148 923.1788537868928 416.4675291152554L923.1788537868928 416.4675291152554Q921.080951670336 419.00249417276154 915.603096143771 420.5759207601791Q910.1543781466028 422.14934734759663 904.9096228552108 422.14934734759663L904.9096228552108 422.14934734759663Q899.4609048580425 422.14934734759663 897.5669654472621 420.25540793681625L897.5669654472621 420.25540793681625Q895.6730260364816 418.5654312318121 894.332699684237 413.2332633522303Q892.9632358025957 407.8719579432519 890.6613709802626 396.53745900796594L890.6613709802626 396.53745900796594Q890.2243080393133 394.23559418563275 888.3303686285329 385.31951019026644Q886.4655667471491 376.4034261949 884.1345643954193 369.06076878695137L884.1345643954193 369.06076878695137L882.6776879255882 395.48850794968746Q880.5797858090314 407.8719579432519 878.2779209866982 428.0059907563177L878.2779209866982 428.0059907563177Q876.1800188701415 445.2262706297213 874.6065922827239 452.13186509672073Q873.0331656953064 459.0665970931168 869.6823498146947 459.0665970931168L869.6823498146947 459.0665970931168ZM1045.673027370292 310.1155468175849Q1060.9993678329151 310.1155468175849 1074.7522817081208 317.4582042255337Q1088.4760580539296 324.80086163348244 1096.7802539319669 336.86379880368395Q1105.0553122806077 348.92673597388546 1105.0553122806077 361.92207408477896L1105.0553122806077 361.92207408477896Q1105.0553122806077 382.2892071330177 1094.157876286271 405.45354300333224Q1083.2313027625378 428.6470164030434 1066.56463594767 444.38128227721927Q1049.8688316034054 460.11554815139516 1033.7266403176768 460.11554815139516L1033.7266403176768 460.11554815139516Q1025.3350318514497 460.11554815139516 1014.9620713862522 453.09340356680923Q1004.5599733916582 446.0712589822233 997.2173159837095 436.310186634355Q989.8746585757607 426.54911428648666 989.8746585757607 419.00249417276154L989.8746585757607 419.00249417276154Q989.8746585757607 407.0269695907498 997.0133532779331 377.77289007654133Q1004.1520479801054 348.51881056233276 1010.2417916239995 334.6493465695407L1010.2417916239995 334.6493465695407Q1017.1473860909989 332.5514444529839 1023.2371297348928 332.5514444529839L1023.2371297348928 332.5514444529839Q1027.4329339680064 332.5514444529839 1029.938761496116 333.3964328054859L1029.938761496116 333.3964328054859Q1029.5308360845634 325.64584998598446 1033.7266403176768 319.14818093053776Q1037.9224445507903 312.62137434569445 1045.673027370292 310.1155468175849L1045.673027370292 310.1155468175849ZM1024.082118087395 431.3859441663259Q1044.216150900461 424.0432867583771 1057.8525146580798 403.15167818099906Q1071.488878415699 382.2892071330177 1077.1415591186437 357.3183444401126L1077.1415591186437 357.3183444401126Q1071.2849157099226 353.122540206999 1061.931768773607 350.38361244371663Q1052.6077593666878 347.67382220983075 1041.9142860781276 347.4698595040544L1041.9142860781276 347.4698595040544Q1042.3222114896803 349.56776162061124 1042.7592744306296 353.7635658537248L1042.7592744306296 353.7635658537248Q1023.4410924406692 389.83582724674284 1024.082118087395 431.3859441663259L1024.082118087395 431.3859441663259ZM1138.2138207339635 459.0665970931168Q1133.3769908541242 459.0665970931168 1126.762771681091 455.59923109491876Q1120.1485525080577 452.13186509672073 1115.2243100400287 447.3241727462781Q1110.3000675719995 442.4873428664389 1110.3000675719995 439.3404896916037L1110.3000675719995 439.3404896916037Q1110.0961048662232 435.98967381099214 1112.2814195709698 425.17965040484535Q1114.495871805113 414.36962699869855 1115.1368974518386 411.22277382386335L1115.1368974518386 411.22277382386335Q1115.952748274944 407.0269695907498 1118.2837506266742 395.8090207730503Q1120.585615449007 384.5910719553509 1122.042491918838 374.94654972506896L1122.042491918838 374.94654972506896L1123.7324686238424 365.06892725961416Q1127.7243101511795 341.5840785659367 1131.1625386199808 326.8987637500393Q1134.629904618179 312.21344893414175 1138.2138207339635 312.21344893414175L1138.2138207339635 312.21344893414175Q1141.7685993203513 312.21344893414175 1147.9457555524352 315.15633940320055Q1154.1520493139155 318.09922987225934 1159.600767311084 322.5864093993392Q1165.0494853082523 327.1027264558156 1166.943424719033 331.09456798315284L1166.943424719033 331.09456798315284Q1170.2942405996444 338.64118809687795 1175.7429585968125 363.40808808400664L1175.7429585968125 363.40808808400664Q1179.5308374183735 380.5992304280137 1181.4247768291539 387.09689948346033L1181.4247768291539 387.09689948346033Q1190.42827341271 373.4605357258413 1204.5017001112788 345.37195738749756L1204.5017001112788 345.37195738749756Q1213.505196694835 327.53978939676495 1218.2254764570876 319.87661916545335Q1222.9457562193402 312.21344893414175 1226.733635040901 312.21344893414175L1226.733635040901 312.21344893414175Q1230.7254765682383 312.21344893414175 1237.543658447048 315.76822752052965Q1244.3618403258574 319.35214363631417 1249.4900454996628 324.1598359867568Q1254.647388202865 328.996665866596 1254.647388202865 332.5514444529839L1254.647388202865 332.5514444529839Q1254.647388202865 335.49433492204275 1252.1124231453591 349.04328609147194Q1249.6065956172492 362.5630997315046 1248.9655699705236 365.91391561211617L1248.9655699705236 365.91391561211617L1243.5168519733552 395.48850794968746Q1241.4189498567985 407.8719579432519 1239.1170850344656 428.0059907563177L1239.1170850344656 428.0059907563177Q1237.019182917909 445.2262706297213 1235.445756330491 452.13186509672073Q1233.8723297430734 459.0665970931168 1230.5215138624621 459.0665970931168L1230.5215138624621 459.0665970931168Q1225.6846839826226 459.0665970931168 1219.0704648095896 455.59923109491876Q1212.4562456365563 452.13186509672073 1207.5320031685274 447.3241727462781Q1202.6077607004981 442.4873428664389 1202.6077607004981 439.3404896916037L1202.6077607004981 439.3404896916037Q1202.4037979947218 436.6306994577178 1204.1811872879157 427.7146154623515Q1205.9585765811098 418.7985314669851 1208.2604414034429 407.4640325316992L1208.2604414034429 407.4640325316992Q1210.1543808142233 398.4313984187463 1210.3583435199996 397.1784846546916L1210.3583435199996 397.1784846546916L1217.9341011631213 373.8975986667906L1214.9912106940624 372.84864760851224L1212.8933085775056 377.0444518416258Q1204.7056628170549 393.82766877408005 1199.7814203490257 403.15167818099906Q1194.857177880997 412.5048251173148 1191.7103247061614 416.4675291152554L1191.7103247061614 416.4675291152554Q1189.6124225896046 419.00249417276154 1184.1345670630399 420.5759207601791Q1178.6858490658715 422.14934734759663 1173.4410937744797 422.14934734759663L1173.4410937744797 422.14934734759663Q1167.9923757773113 422.14934734759663 1166.0984363665307 420.25540793681625L1166.0984363665307 420.25540793681625Q1164.2044969557503 418.5654312318121 1162.8641706035057 413.2332633522303Q1161.4947067218645 407.8719579432519 1159.1928418995312 396.53745900796594L1159.1928418995312 396.53745900796594Q1158.755778958582 394.23559418563275 1156.8618395478015 385.31951019026644Q1154.9970376664178 376.4034261949 1152.6660353146879 369.06076878695137L1152.6660353146879 369.06076878695137L1151.209158844857 395.48850794968746Q1149.1112567282998 407.8719579432519 1146.809391905967 428.0059907563177L1146.809391905967 428.0059907563177Q1144.7114897894103 445.2262706297213 1143.1380632019927 452.13186509672073Q1141.564636614575 459.0665970931168 1138.2138207339635 459.0665970931168L1138.2138207339635 459.0665970931168ZM1314.2044982895604 310.1155468175849Q1329.5308387521836 310.1155468175849 1343.2837526273893 317.4582042255337Q1357.007528973198 324.80086163348244 1365.3117248512353 336.86379880368395Q1373.5867831998762 348.92673597388546 1373.5867831998762 361.92207408477896L1373.5867831998762 361.92207408477896Q1373.5867831998762 382.2892071330177 1362.6893472055394 405.45354300333224Q1351.7627736818063 428.6470164030434 1335.0961068669385 444.38128227721927Q1318.4003025226743 460.11554815139516 1302.2581112369453 460.11554815139516L1302.2581112369453 460.11554815139516Q1293.8665027707184 460.11554815139516 1283.4935423055208 453.09340356680923Q1273.0914443109268 446.0712589822233 1265.7487869029778 436.310186634355Q1258.4061294950293 426.54911428648666 1258.4061294950293 419.00249417276154L1258.4061294950293 419.00249417276154Q1258.4061294950293 407.0269695907498 1265.5448241972017 377.77289007654133Q1272.6835188993741 348.51881056233276 1278.7732625432682 334.6493465695407L1278.7732625432682 334.6493465695407Q1285.6788570102676 332.5514444529839 1291.7686006541617 332.5514444529839L1291.7686006541617 332.5514444529839Q1295.9644048872751 332.5514444529839 1298.4702324153845 333.3964328054859L1298.4702324153845 333.3964328054859Q1298.0623070038318 325.64584998598446 1302.2581112369453 319.14818093053776Q1306.4539154700592 312.62137434569445 1314.2044982895604 310.1155468175849L1314.2044982895604 310.1155468175849ZM1292.6135890066635 431.3859441663259Q1312.7476218197294 424.0432867583771 1326.3839855773485 403.15167818099906Q1340.0203493349677 382.2892071330177 1345.6730300379122 357.3183444401126L1345.6730300379122 357.3183444401126Q1339.8163866291911 353.122540206999 1330.4632396928755 350.38361244371663Q1321.1392302859567 347.67382220983075 1310.445756997396 347.4698595040544L1310.445756997396 347.4698595040544Q1310.8536824089488 349.56776162061124 1311.2907453498983 353.7635658537248L1311.2907453498983 353.7635658537248Q1291.9725633599378 389.83582724674284 1292.6135890066635 431.3859441663259L1292.6135890066635 431.3859441663259Z " fill="#ffff" transform="matrix(0.6370183559576458,0,0,0.6370183559576459,0,54.67431633273915)"/></g></svg>